<svg width="24" height="24" viewBox="0 0 24 24" fill="none" xmlns="http://www.w3.org/2000/svg">
<mask id="mask0_5_8073" style="mask-type:alpha" maskUnits="userSpaceOnUse" x="0" y="0" width="24" height="24">
<rect width="24" height="24" fill="#D9D9D9"/>
</mask>
<g mask="url(#mask0_5_8073)">
<path d="M12 20.3267L10.8963 19.3344C9.23858 17.8306 7.86775 16.5383 6.78375 15.4577C5.69975 14.3768 4.84075 13.4149 4.20675 12.5719C3.57275 11.7291 3.12983 10.9602 2.878 10.2652C2.626 9.57032 2.5 8.86524 2.5 8.1499C2.5 6.73074 2.9785 5.54257 3.9355 4.5854C4.89267 3.6284 6.08083 3.1499 7.5 3.1499C8.373 3.1499 9.198 3.35407 9.975 3.7624C10.752 4.17074 11.427 4.75632 12 5.51915C12.573 4.75632 13.248 4.17074 14.025 3.7624C14.802 3.35407 15.627 3.1499 16.5 3.1499C17.9192 3.1499 19.1073 3.6284 20.0645 4.5854C21.0215 5.54257 21.5 6.73074 21.5 8.1499C21.5 8.86524 21.374 9.57032 21.122 10.2652C20.8702 10.9602 20.4272 11.7291 19.7932 12.5719C19.1592 13.4149 18.3018 14.3768 17.221 15.4577C16.1403 16.5383 14.7679 17.8306 13.1038 19.3344L12 20.3267Z" fill="url(#paint0_linear_5_8073)"/>
</g>
<defs>
<linearGradient id="paint0_linear_5_8073" x1="4.16667" y1="5.49988" x2="15.1667" y2="19.9999" gradientUnits="userSpaceOnUse">
<stop stop-color="#FF3C3C"/>
<stop offset="1" stop-color="#992424"/>
</linearGradient>
</defs>
</svg>
