<svg width="24" height="24" viewBox="0 0 24 24" fill="none" xmlns="http://www.w3.org/2000/svg">
<mask id="mask0_5_8704" style="mask-type:alpha" maskUnits="userSpaceOnUse" x="0" y="0" width="24" height="24">
<rect width="24" height="24" fill="#D9D9D9"/>
</mask>
<g mask="url(#mask0_5_8704)">
<path d="M9.21251 19.125C8.96567 19.125 8.74459 19.0523 8.54926 18.907C8.35376 18.7615 8.21042 18.5764 8.11926 18.3517L5.93476 12.75H2.26926C2.05676 12.75 1.87867 12.6781 1.73501 12.5342C1.59117 12.3904 1.51926 12.2122 1.51926 11.9997C1.51926 11.7871 1.59117 11.609 1.73501 11.4655C1.87867 11.3218 2.05676 11.25 2.26926 11.25H6.35576C6.54676 11.25 6.71501 11.3035 6.86051 11.4105C7.00601 11.5176 7.11726 11.6584 7.19426 11.8327L9.21151 17.023L13.6963 5.63848C13.7871 5.41381 13.9299 5.22881 14.1248 5.08348C14.3198 4.93815 14.5407 4.86548 14.7875 4.86548C15.0343 4.86548 15.2554 4.93815 15.4508 5.08348C15.6463 5.22881 15.7896 5.41381 15.8808 5.63848L18.0845 11.25H21.75C21.9625 11.25 22.1406 11.3219 22.2843 11.4657C22.4281 11.6096 22.5 11.7877 22.5 12.0002C22.5 12.2129 22.4281 12.391 22.2843 12.5345C22.1406 12.6781 21.9625 12.75 21.75 12.75H17.6538C17.4606 12.75 17.2934 12.6965 17.1523 12.5895C17.0109 12.4823 16.9018 12.3416 16.825 12.1672L14.7885 6.96723L10.3038 18.3517C10.2129 18.5764 10.0701 18.7615 9.87526 18.907C9.68026 19.0523 9.45934 19.125 9.21251 19.125Z" fill="#1A1A1A"/>
</g>
</svg>
