<svg width="24" height="24" viewBox="0 0 24 24" fill="none" xmlns="http://www.w3.org/2000/svg">
<mask id="mask0_5_8699" style="mask-type:alpha" maskUnits="userSpaceOnUse" x="0" y="0" width="24" height="24">
<rect width="24" height="24" fill="#D9D9D9"/>
</mask>
<g mask="url(#mask0_5_8699)">
<path d="M12.0405 13.0287L5.9615 19.1172C5.80633 19.2724 5.6265 19.35 5.422 19.35C5.21767 19.35 5.03792 19.2724 4.88275 19.1172C4.72758 18.962 4.65 18.7823 4.65 18.578C4.65 18.3735 4.72758 18.1936 4.88275 18.0385L14.1963 8.74996H10.75V9.99996C10.75 10.2125 10.6781 10.3905 10.5343 10.5342C10.3904 10.678 10.2122 10.75 9.99975 10.75C9.78708 10.75 9.609 10.678 9.4655 10.5342C9.32183 10.3905 9.25 10.2125 9.25 9.99996V8.15846C9.25 7.89763 9.33658 7.68105 9.50975 7.50871C9.68308 7.33621 9.89775 7.24996 10.1538 7.24996H15.023C15.2647 7.24996 15.495 7.2968 15.714 7.39046C15.9328 7.48396 16.1243 7.6128 16.2885 7.77696L19.173 10.6365C19.5448 11.0083 19.9644 11.3147 20.4318 11.5557C20.8991 11.7967 21.4039 11.9608 21.9463 12.048C22.1646 12.085 22.3541 12.1805 22.5148 12.3345C22.6754 12.4885 22.7558 12.6735 22.7558 12.8895C22.7558 13.1055 22.6663 13.2827 22.4875 13.4212C22.3087 13.5595 22.1128 13.6153 21.9 13.5885C21.1757 13.5013 20.5048 13.3045 19.8875 12.998C19.2702 12.6916 18.7013 12.2833 18.1808 11.773L17.0463 10.6077L14.3943 13.25L15.7578 14.623C15.9718 14.8371 16.0596 15.089 16.0213 15.3787C15.9828 15.6685 15.8347 15.8904 15.577 16.0442L11.2 18.5635C11.0243 18.6646 10.8325 18.6901 10.6245 18.64C10.4163 18.5896 10.2618 18.4765 10.161 18.3005C10.0602 18.1245 10.0384 17.9325 10.0958 17.7247C10.1533 17.5167 10.2713 17.3623 10.45 17.2615L14.1443 15.1327L12.0405 13.0287ZM4.25 12.75C4.0375 12.75 3.85942 12.678 3.71575 12.5342C3.57192 12.3904 3.5 12.2122 3.5 11.9997C3.5 11.787 3.57192 11.609 3.71575 11.4655C3.85942 11.3218 4.0375 11.25 4.25 11.25H7.25C7.4625 11.25 7.64067 11.3219 7.7845 11.4657C7.92817 11.6095 8 11.7877 8 12.0002C8 12.2129 7.92817 12.391 7.7845 12.5345C7.64067 12.6781 7.4625 12.75 7.25 12.75H4.25ZM2.25 9.74996C2.0375 9.74996 1.85942 9.67805 1.71575 9.53421C1.57192 9.39038 1.5 9.21221 1.5 8.99971C1.5 8.78705 1.57192 8.60896 1.71575 8.46546C1.85942 8.3218 2.0375 8.24996 2.25 8.24996H5.25C5.4625 8.24996 5.64067 8.32188 5.7845 8.46571C5.92817 8.60955 6 8.78771 6 9.00021C6 9.21288 5.92817 9.39096 5.7845 9.53446C5.64067 9.67813 5.4625 9.74996 5.25 9.74996H2.25ZM19.475 7.74996C18.9892 7.74996 18.5718 7.57746 18.223 7.23246C17.8743 6.88746 17.7 6.47271 17.7 5.98821C17.7 5.50371 17.8743 5.08971 18.223 4.74621C18.5718 4.40255 18.9892 4.23071 19.475 4.23071C19.9608 4.23071 20.3782 4.40321 20.727 4.74821C21.0757 5.09321 21.25 5.50796 21.25 5.99246C21.25 6.47696 21.0757 6.89096 20.727 7.23446C20.3782 7.57813 19.9608 7.74996 19.475 7.74996ZM4.25 6.74996C4.0375 6.74996 3.85942 6.67805 3.71575 6.53421C3.57192 6.39038 3.5 6.21221 3.5 5.99971C3.5 5.78705 3.57192 5.60896 3.71575 5.46546C3.85942 5.3218 4.0375 5.24996 4.25 5.24996H7.25C7.4625 5.24996 7.64067 5.32188 7.7845 5.46571C7.92817 5.60955 8 5.78771 8 6.00021C8 6.21288 7.92817 6.39096 7.7845 6.53446C7.64067 6.67813 7.4625 6.74996 7.25 6.74996H4.25Z" fill="#1A1A1A"/>
</g>
</svg>
