<svg width="24" height="24" viewBox="0 0 24 24" fill="none" xmlns="http://www.w3.org/2000/svg">
<mask id="mask0_5_8401" style="mask-type:alpha" maskUnits="userSpaceOnUse" x="0" y="0" width="24" height="24">
<rect width="24" height="24" fill="#D9D9D9"/>
</mask>
<g mask="url(#mask0_5_8401)">
<path d="M5.52301 20.2309C5.20251 20.2309 4.9301 20.1187 4.70576 19.8944C4.48143 19.67 4.36926 19.3976 4.36926 19.0771C4.36926 18.7566 4.48143 18.4841 4.70576 18.2596C4.9301 18.0353 5.20251 17.9231 5.52301 17.9231H7.43076L4.86151 9.51537C4.41801 9.2847 4.05843 8.95012 3.78276 8.51162C3.5071 8.07312 3.36926 7.58853 3.36926 7.05787C3.36926 6.29503 3.63693 5.64595 4.17226 5.11062C4.70743 4.57545 5.35643 4.30787 6.11926 4.30787C6.7501 4.30787 7.30201 4.49537 7.77501 4.87037C8.24801 5.24537 8.57176 5.72453 8.74626 6.30787H12.177V5.05787C12.177 4.84503 12.2488 4.66678 12.3923 4.52312C12.5359 4.37962 12.7142 4.30787 12.927 4.30787C13.0577 4.30787 13.1794 4.3412 13.2923 4.40787C13.4051 4.47453 13.4923 4.56812 13.5538 4.68862V4.82312L15.3115 3.18487C15.4552 3.0412 15.6215 2.95178 15.8105 2.91662C15.9997 2.88128 16.1846 2.91045 16.3653 3.00412L20.2078 4.78487C20.3693 4.86553 20.4843 4.98245 20.5528 5.13562C20.6214 5.28895 20.6205 5.4412 20.55 5.59237C20.4692 5.75403 20.3522 5.85762 20.199 5.90312C20.0458 5.94862 19.8936 5.93612 19.7423 5.86562L16.0463 4.15787L13.677 6.35787V7.75787L16.0463 9.90787L19.7423 8.20012C19.8936 8.12962 20.0484 8.1197 20.2068 8.17037C20.3651 8.22103 20.4795 8.32195 20.55 8.47312C20.6307 8.63462 20.6342 8.78945 20.5605 8.93762C20.4868 9.08562 20.3693 9.20003 20.2078 9.28087L16.3653 11.0924C16.1846 11.186 15.9997 11.2136 15.8105 11.1751C15.6215 11.1366 15.4552 11.0488 15.3115 10.9116L13.5538 9.29237V9.42712C13.4923 9.52712 13.4051 9.61553 13.2923 9.69237C13.1794 9.76937 13.0577 9.80787 12.927 9.80787C12.7142 9.80787 12.5359 9.73603 12.3923 9.59237C12.2488 9.44887 12.177 9.2707 12.177 9.05787V7.80787H8.74626C8.69626 7.98603 8.62768 8.15912 8.54051 8.32712C8.45318 8.49495 8.34993 8.64878 8.23076 8.78862L13.1538 17.9231H15.7155C16.036 17.9231 16.3084 18.0353 16.5328 18.2596C16.7571 18.4841 16.8693 18.7566 16.8693 19.0771C16.8693 19.3976 16.7571 19.67 16.5328 19.8944C16.3084 20.1187 16.036 20.2309 15.7155 20.2309H5.52301ZM6.11926 8.30787C6.46676 8.30787 6.76193 8.18637 7.00476 7.94337C7.24776 7.70037 7.36926 7.4052 7.36926 7.05787C7.36926 6.71037 7.24776 6.41512 7.00476 6.17212C6.76193 5.92928 6.46676 5.80787 6.11926 5.80787C5.77176 5.80787 5.4766 5.92928 5.23376 6.17212C4.99076 6.41512 4.86926 6.71037 4.86926 7.05787C4.86926 7.4052 4.99076 7.70037 5.23376 7.94337C5.4766 8.18637 5.77176 8.30787 6.11926 8.30787ZM8.98076 17.9231H11.4308L7.01551 9.71162C6.96418 9.74362 6.88335 9.77087 6.77301 9.79337C6.66285 9.81587 6.56926 9.8207 6.49226 9.80787L8.98076 17.9231Z" fill="white"/>
</g>
</svg>
