<svg width="24" height="24" viewBox="0 0 24 24" fill="none" xmlns="http://www.w3.org/2000/svg">
<mask id="mask0_5_8701" style="mask-type:alpha" maskUnits="userSpaceOnUse" x="0" y="0" width="24" height="24">
<rect width="24" height="24" fill="#D9D9D9"/>
</mask>
<g mask="url(#mask0_5_8701)">
<path d="M10.0192 15.8269H13.9808C14.2369 15.8269 14.4516 15.7403 14.6248 15.5669C14.7979 15.3938 14.8845 15.1791 14.8845 14.9229V11.9614C14.8845 11.7054 14.7979 11.4908 14.6248 11.3174C14.4516 11.1443 14.2369 11.0577 13.9808 11.0577H13.8943V10.0577C13.8943 9.53336 13.7113 9.08819 13.3453 8.72219C12.9792 8.35602 12.534 8.17294 12.0095 8.17294C11.4852 8.17294 11.04 8.35602 10.674 8.72219C10.308 9.08819 10.125 9.53336 10.125 10.0577V11.0577H10.0192C9.76308 11.0577 9.54842 11.1443 9.37525 11.3174C9.20208 11.4908 9.1155 11.7054 9.1155 11.9614V14.9229C9.1155 15.1791 9.20208 15.3938 9.37525 15.5669C9.54842 15.7403 9.76308 15.8269 10.0192 15.8269ZM11.0095 11.0577V10.0577C11.0095 9.77436 11.1053 9.53686 11.297 9.34519C11.4887 9.15352 11.7262 9.05769 12.0095 9.05769C12.2928 9.05769 12.5303 9.15352 12.722 9.34519C12.9137 9.53686 13.0095 9.77436 13.0095 10.0577V11.0577H11.0095ZM12 21.3709C11.8962 21.3709 11.7942 21.3626 11.6942 21.3459C11.5942 21.3293 11.4974 21.3043 11.4037 21.2709C9.29492 20.5209 7.61708 19.1912 6.37025 17.2817C5.12342 15.372 4.5 13.3114 4.5 11.0999V6.59619C4.5 6.21636 4.60925 5.87444 4.82775 5.57044C5.04608 5.26661 5.3285 5.04636 5.675 4.90969L11.3672 2.78469C11.5814 2.70769 11.7923 2.66919 12 2.66919C12.2077 2.66919 12.4186 2.70769 12.6328 2.78469L18.325 4.90969C18.6715 5.04636 18.9539 5.26661 19.1723 5.57044C19.3908 5.87444 19.5 6.21636 19.5 6.59619V11.0999C19.5 13.3114 18.8766 15.372 17.6298 17.2817C16.3829 19.1912 14.7051 20.5209 12.5963 21.2709C12.5026 21.3043 12.4058 21.3293 12.3058 21.3459C12.2058 21.3626 12.1038 21.3709 12 21.3709ZM12 19.8999C13.7333 19.3499 15.1667 18.2499 16.3 16.5999C17.4333 14.9499 18 13.1166 18 11.0999V6.58644C18 6.52244 17.9823 6.46477 17.947 6.41344C17.9118 6.36211 17.8622 6.32361 17.798 6.29794L12.1058 4.17294C12.0738 4.16011 12.0385 4.15369 12 4.15369C11.9615 4.15369 11.9262 4.16011 11.8942 4.17294L6.202 6.29794C6.13783 6.32361 6.08817 6.36211 6.053 6.41344C6.01767 6.46477 6 6.52244 6 6.58644V11.0999C6 13.1166 6.56667 14.9499 7.7 16.5999C8.83333 18.2499 10.2667 19.3499 12 19.8999Z" fill="white"/>
</g>
</svg>
