<svg width="24" height="24" viewBox="0 0 24 24" fill="none" xmlns="http://www.w3.org/2000/svg">
<mask id="mask0_5_8536" style="mask-type:alpha" maskUnits="userSpaceOnUse" x="0" y="0" width="24" height="24">
<rect width="24" height="24" fill="#D9D9D9"/>
</mask>
<g mask="url(#mask0_5_8536)">
<path d="M18.946 21.5H5.54626C4.88976 21.5 4.38334 21.2288 4.02701 20.6865C3.67051 20.1442 3.62951 19.5718 3.90401 18.9693L5.85 14.5848C6.00384 14.2501 6.22725 13.9857 6.52025 13.7915C6.81325 13.5972 7.1405 13.5 7.502 13.5H9.3365L10.8848 9.63477C11.0219 9.28977 11.2411 9.01443 11.5423 8.80876C11.8436 8.60293 12.1833 8.50002 12.5615 8.50002H16.2693C16.6744 8.50002 17.0359 8.62052 17.3538 8.86152C17.6718 9.10252 17.8878 9.42052 18.002 9.81552L20.6788 19.2C20.8429 19.7757 20.7458 20.3029 20.3875 20.7818C20.0292 21.2606 19.5487 21.5 18.946 21.5ZM5.54626 20H18.946C19.0487 20 19.1304 19.9583 19.1913 19.875C19.2523 19.7917 19.2667 19.7019 19.2345 19.6058L16.5673 10.2213C16.5481 10.1508 16.5113 10.0963 16.4568 10.0578C16.4023 10.0193 16.3398 10 16.2693 10H12.5615C12.4975 10 12.4398 10.0177 12.3885 10.053C12.3372 10.0882 12.2987 10.1346 12.273 10.1923L10.5808 14.4328C10.5039 14.5968 10.3902 14.7323 10.2395 14.8395C10.0888 14.9465 9.92309 15 9.74226 15H7.502C7.43784 15 7.38176 15.016 7.33376 15.048C7.28559 15.0802 7.24867 15.1251 7.22301 15.1828L5.26726 19.5673C5.22242 19.6699 5.23042 19.7677 5.29125 19.8605C5.35225 19.9535 5.43726 20 5.54626 20ZM13.4423 4.38477V2.38477C13.4423 2.17193 13.5141 1.99368 13.6578 1.85002C13.8013 1.70652 13.9794 1.63477 14.1923 1.63477C14.4051 1.63477 14.5833 1.70652 14.727 1.85002C14.8705 1.99368 14.9423 2.17193 14.9423 2.38477V4.38477C14.9423 4.59743 14.8705 4.7756 14.727 4.91927C14.5833 5.06293 14.4051 5.13477 14.1923 5.13477C13.9794 5.13477 13.8013 5.06293 13.6578 4.91927C13.5141 4.7756 13.4423 4.59743 13.4423 4.38477ZM17.1905 5.33277L18.625 3.90777C18.7635 3.76927 18.935 3.70002 19.1395 3.70002C19.344 3.70002 19.5206 3.76927 19.6693 3.90777C19.8244 4.05643 19.902 4.2321 19.902 4.43477C19.902 4.63727 19.8244 4.81285 19.6693 4.96152L18.2345 6.38652C18.0962 6.52502 17.9248 6.59527 17.7203 6.59727C17.5158 6.5991 17.3392 6.52568 17.1905 6.37702C17.052 6.23852 16.9828 6.06443 16.9828 5.85477C16.9828 5.64527 17.052 5.47127 17.1905 5.33277ZM10.15 6.37702L8.71551 4.95202C8.577 4.81352 8.50775 4.64202 8.50775 4.43752C8.50775 4.23302 8.577 4.05643 8.71551 3.90777C8.86417 3.7526 9.03976 3.67502 9.24226 3.67502C9.44492 3.67502 9.62059 3.7526 9.76925 3.90777L11.1943 5.34227C11.3328 5.48077 11.4045 5.65068 11.4095 5.85202C11.4147 6.05318 11.3429 6.22818 11.1943 6.37702C11.0558 6.51552 10.8818 6.58477 10.6723 6.58477C10.4626 6.58477 10.2885 6.51552 10.15 6.37702ZM5.54626 20H5.26726H19.2345H5.54626Z" fill="white"/>
</g>
</svg>
