<svg width="24" height="24" viewBox="0 0 24 24" fill="none" xmlns="http://www.w3.org/2000/svg">
<mask id="mask0_5_8403" style="mask-type:alpha" maskUnits="userSpaceOnUse" x="0" y="0" width="24" height="24">
<rect width="24" height="24" fill="#D9D9D9"/>
</mask>
<g mask="url(#mask0_5_8403)">
<path d="M18.9442 21.1479L15.952 18.1709L14.2402 19.8827C14.1147 20.0082 13.952 20.0709 13.752 20.0709C13.552 20.0709 13.3892 20.0082 13.2635 19.8827C12.9187 19.5377 12.7462 19.1107 12.7462 18.6019C12.7462 18.0929 12.9187 17.666 13.2635 17.3212L17.4212 13.1634C17.7661 12.8186 18.193 12.6462 18.702 12.6462C19.2108 12.6462 19.6377 12.8186 19.9827 13.1634C20.1082 13.2891 20.171 13.4519 20.171 13.6519C20.171 13.8519 20.1082 14.0147 19.9827 14.1402L18.271 15.8519L21.248 18.8442C21.4288 19.0248 21.5192 19.2357 21.5192 19.4769C21.5192 19.7179 21.4288 19.9287 21.248 20.1094L20.2095 21.1479C20.0288 21.3287 19.818 21.4192 19.577 21.4192C19.3358 21.4192 19.1249 21.3287 18.9442 21.1479ZM21.2287 5.9594L10.3037 16.8942L10.7365 17.3114C11.0813 17.6562 11.2537 18.0832 11.2537 18.5922C11.2537 19.1012 11.0813 19.5281 10.7365 19.8729C10.6108 19.9986 10.448 20.0614 10.248 20.0614C10.048 20.0614 9.88524 19.9986 9.75974 19.8729L8.04799 18.1614L5.05574 21.1384C4.87508 21.3191 4.66416 21.4094 4.42299 21.4094C4.18199 21.4094 3.97116 21.3191 3.79049 21.1384L2.75199 20.0999C2.57116 19.9191 2.48074 19.7082 2.48074 19.4672C2.48074 19.2262 2.57116 19.0152 2.75199 18.8344L5.72899 15.8422L4.01724 14.1307C3.89174 14.005 3.82899 13.8422 3.82899 13.6422C3.82899 13.4422 3.89174 13.2793 4.01724 13.1537C4.36224 12.8088 4.78916 12.6364 5.29799 12.6364C5.80699 12.6364 6.23391 12.8088 6.57874 13.1537L7.00574 13.5962L17.6847 2.9269C17.8487 2.76274 18.042 2.6339 18.2645 2.5404C18.4868 2.44674 18.7186 2.3999 18.9597 2.3999H20.596C20.8538 2.3999 21.0689 2.48615 21.2412 2.65865C21.4137 2.83099 21.5 3.04607 21.5 3.3039V5.3114C21.5 5.4319 21.4782 5.54665 21.4345 5.65565C21.391 5.76465 21.3224 5.8659 21.2287 5.9594ZM6.75399 9.9519L3.01724 6.21515C2.85324 6.05115 2.72599 5.8579 2.63549 5.6354C2.54516 5.41307 2.49999 5.18132 2.49999 4.94015V3.3039C2.49999 3.04607 2.58624 2.83099 2.75874 2.65865C2.93108 2.48615 3.14616 2.3999 3.40399 2.3999H5.04024C5.28141 2.3999 5.51316 2.44674 5.73549 2.5404C5.95799 2.6339 6.15124 2.76274 6.31524 2.9269L10.0577 6.6789C10.2064 6.82757 10.2782 6.99999 10.273 7.19615C10.2678 7.39232 10.1909 7.56473 10.0422 7.7134C9.89358 7.8519 9.71958 7.92365 9.52024 7.92865C9.32091 7.93382 9.14683 7.86207 8.99799 7.7134L5.17499 3.8999H3.99999V5.0749L7.82299 8.8979C7.96149 9.0364 8.03233 9.2079 8.03549 9.4124C8.03883 9.6169 7.96799 9.79674 7.82299 9.9519C7.66799 10.1069 7.48983 10.1844 7.28849 10.1844C7.08716 10.1844 6.90899 10.1069 6.75399 9.9519ZM9.24999 15.8249L20 5.0749V3.8999H18.825L8.07499 14.6499L9.24999 15.8249Z" fill="white"/>
</g>
</svg>
