<svg width="24" height="24" viewBox="0 0 24 24" fill="none" xmlns="http://www.w3.org/2000/svg">
<mask id="mask0_5_8407" style="mask-type:alpha" maskUnits="userSpaceOnUse" x="0" y="0" width="24" height="24">
<rect width="24" height="24" fill="#D9D9D9"/>
</mask>
<g mask="url(#mask0_5_8407)">
<path d="M16.1115 12.6749L14.0288 16.0286C13.8839 16.2543 13.6778 16.3486 13.4105 16.3114C13.1433 16.2742 12.9777 16.1211 12.9135 15.8519L12.175 12.8691L5.08076 19.9729C4.94226 20.1114 4.77076 20.1848 4.56626 20.1931C4.36192 20.2015 4.18217 20.1281 4.02701 19.9729C3.88217 19.8281 3.80976 19.6525 3.80976 19.4461C3.80976 19.2396 3.88217 19.064 4.02701 18.9191L11.1308 11.7999L8.15776 11.0614C7.88859 10.9972 7.73376 10.8331 7.69326 10.5691C7.65292 10.305 7.74559 10.1005 7.97126 9.95565L11.325 7.88839L11.0348 3.93839C11.0078 3.66923 11.1138 3.47239 11.353 3.34789C11.592 3.22356 11.8141 3.25048 12.0193 3.42865L15.048 5.9769L18.7078 4.4904C18.9603 4.38256 19.1823 4.42448 19.374 4.61615C19.5657 4.80781 19.6077 5.02998 19.5 5.28265L18.023 8.94215L20.5713 11.9556C20.7494 12.1608 20.7779 12.3846 20.6568 12.6269C20.5356 12.8691 20.3404 12.9767 20.0713 12.9499L16.1115 12.6749ZM3.82126 6.08064C3.72759 5.98698 3.68076 5.8799 3.68076 5.7594C3.68076 5.6389 3.72759 5.53189 3.82126 5.43839L4.82301 4.4364C4.91667 4.3429 5.02376 4.29614 5.14426 4.29614C5.26476 4.29614 5.37184 4.3429 5.46551 4.4364L6.46726 5.43839C6.56092 5.53189 6.60776 5.6389 6.60776 5.7594C6.60776 5.8799 6.56092 5.98698 6.46726 6.08064L5.46551 7.08265C5.37184 7.17615 5.26476 7.2229 5.14426 7.2229C5.02376 7.2229 4.91667 7.17615 4.82301 7.08265L3.82126 6.08064ZM13.875 13.4346L15.3058 11.1036L18.0443 11.3076L16.275 9.20565L17.304 6.6709L14.7693 7.6999L12.6673 5.9459L12.8713 8.66915L10.55 10.1154L13.2038 10.7711L13.875 13.4346ZM17.9193 20.1786L16.9173 19.1769C16.8238 19.0832 16.777 18.9761 16.777 18.8556C16.777 18.7351 16.8238 18.6281 16.9173 18.5344L17.9193 17.5326C18.0129 17.439 18.12 17.3921 18.2405 17.3921C18.361 17.3921 18.468 17.439 18.5615 17.5326L19.5635 18.5344C19.657 18.6281 19.7038 18.7351 19.7038 18.8556C19.7038 18.9761 19.657 19.0832 19.5635 19.1769L18.5615 20.1786C18.468 20.2723 18.361 20.3191 18.2405 20.3191C18.12 20.3191 18.0129 20.2723 17.9193 20.1786Z" fill="white"/>
</g>
</svg>
