<svg width="24" height="24" viewBox="0 0 24 24" fill="none" xmlns="http://www.w3.org/2000/svg">
<mask id="mask0_5_8400" style="mask-type:alpha" maskUnits="userSpaceOnUse" x="0" y="0" width="24" height="24">
<rect width="24" height="24" fill="#D9D9D9"/>
</mask>
<g mask="url(#mask0_5_8400)">
<path d="M9.90375 17.6152L8.57125 20.8057C8.49608 20.9904 8.36158 21.1228 8.16775 21.203C7.97392 21.283 7.784 21.2858 7.598 21.2115C7.41217 21.1372 7.27792 21.0029 7.19525 20.8088C7.11258 20.6144 7.10842 20.4243 7.18275 20.2385L8.3635 17.4078C6.63533 17.0179 5.226 16.1368 4.1355 14.7645C3.04517 13.392 2.5 11.8221 2.5 10.0547V6.1635C2.5 5.156 2.85875 4.29358 3.57625 3.57625C4.29358 2.85875 5.156 2.5 6.1635 2.5C6.4755 2.5 6.77342 2.5465 7.05725 2.6395C7.34092 2.7325 7.62375 2.836 7.90575 2.95L12.277 4.75575C12.468 4.83275 12.5609 4.97092 12.5558 5.17025C12.5506 5.36958 12.4493 5.50775 12.252 5.58475L9.827 6.5095V8.23075L20.4 15.15C20.5038 15.227 20.5875 15.3148 20.651 15.4135C20.7145 15.5122 20.7597 15.6218 20.7865 15.7423L21.3328 18.627C21.3763 18.859 21.3265 19.0625 21.1835 19.2375C21.0407 19.4125 20.8548 19.5 20.626 19.5H20.3433C20.1952 19.5 20.0642 19.4606 19.95 19.3818C19.8358 19.3029 19.7467 19.2013 19.6828 19.077L19.0095 17.6152H13.702V20.75C13.702 20.9625 13.6301 21.1406 13.4863 21.2843C13.3424 21.4281 13.1642 21.5 12.9515 21.5C12.739 21.5 12.5609 21.4281 12.4173 21.2843C12.2738 21.1406 12.202 20.9625 12.202 20.75V17.6152H9.90375ZM6.16375 7.02875C5.91875 7.02875 5.71325 6.94592 5.54725 6.78025C5.38108 6.61442 5.298 6.40892 5.298 6.16375C5.298 5.91875 5.38092 5.71325 5.54675 5.54725C5.71258 5.38108 5.91808 5.298 6.16325 5.298C6.40825 5.298 6.61375 5.38092 6.77975 5.54675C6.94575 5.71258 7.02875 5.91808 7.02875 6.16325C7.02875 6.40825 6.94592 6.61375 6.78025 6.77975C6.61442 6.94575 6.40892 7.02875 6.16375 7.02875ZM10.048 16.1155H19.123L16.9615 14.6923H9.952C9.35833 14.6923 8.8085 14.5714 8.3025 14.3298C7.7965 14.0881 7.36683 13.7506 7.0135 13.3173C6.79033 13.0583 6.59158 12.7326 6.41725 12.3403C6.24292 11.9481 6.15575 11.5693 6.15575 11.2037C6.15575 10.9913 6.22767 10.8132 6.3715 10.6695C6.51517 10.5257 6.69325 10.4538 6.90575 10.4538C7.09592 10.4538 7.26075 10.5179 7.40025 10.6462C7.53975 10.7744 7.62492 10.9295 7.65575 11.1115C7.70708 11.7063 7.95133 12.2018 8.3885 12.598C8.82567 12.9942 9.34683 13.1923 9.952 13.1923H14.6443L8.327 9.0615V6.1635C8.327 5.56217 8.11675 5.05125 7.69625 4.63075C7.27575 4.21025 6.76483 4 6.1635 4C5.56217 4 5.05125 4.21025 4.63075 4.63075C4.21025 5.05125 4 5.56217 4 6.1635V10.0578C4 11.7404 4.588 13.1707 5.764 14.3485C6.94 15.5265 8.368 16.1155 10.048 16.1155Z" fill="white"/>
</g>
</svg>
