<svg width="24" height="24" viewBox="0 0 24 24" fill="none" xmlns="http://www.w3.org/2000/svg">
<mask id="mask0_5_8411" style="mask-type:alpha" maskUnits="userSpaceOnUse" x="0" y="0" width="24" height="24">
<rect width="24" height="24" fill="#D9D9D9"/>
</mask>
<g mask="url(#mask0_5_8411)">
<path d="M11.9983 21.5C9.85708 21.5 8.07208 20.7646 6.64325 19.2937C5.21442 17.8227 4.5 15.992 4.5 13.8015C4.5 12.8313 4.71992 11.8579 5.15975 10.8812C5.59942 9.90473 6.14908 8.96756 6.80875 8.06973C7.46825 7.1719 8.18167 6.3274 8.949 5.53623C9.71633 4.74506 10.4288 4.05673 11.0865 3.47123C11.2135 3.35073 11.3561 3.26131 11.5143 3.20298C11.6724 3.14465 11.8343 3.11548 12 3.11548C12.1657 3.11548 12.3276 3.14465 12.4857 3.20298C12.6439 3.26131 12.7865 3.35073 12.9135 3.47123C13.5712 4.05673 14.2837 4.74506 15.051 5.53623C15.8183 6.3274 16.5318 7.1719 17.1913 8.06973C17.8509 8.96756 18.4006 9.90473 18.8403 10.8812C19.2801 11.8579 19.5 12.8313 19.5 13.8015C19.5 15.992 18.785 17.8227 17.355 19.2937C15.925 20.7646 14.1394 21.5 11.9983 21.5ZM12 20C13.7333 20 15.1667 19.4125 16.3 18.2375C17.4333 17.0625 18 15.5833 18 13.8C18 12.5833 17.4958 11.2083 16.4875 9.67498C15.4792 8.14165 13.9833 6.46665 12 4.64998C10.0167 6.46665 8.52083 8.14165 7.5125 9.67498C6.50417 11.2083 6 12.5833 6 13.8C6 15.5833 6.56667 17.0625 7.7 18.2375C8.83333 19.4125 10.2667 20 12 20ZM12.2463 18.8462C12.4206 18.8296 12.5642 18.7643 12.677 18.6505C12.7898 18.5366 12.8462 18.3994 12.8462 18.2387C12.8462 18.0514 12.7847 17.9029 12.6617 17.7932C12.5387 17.6836 12.3817 17.6371 12.1905 17.6537C11.5072 17.7037 10.7629 17.5035 9.95775 17.053C9.15258 16.6023 8.65 15.8186 8.45 14.702C8.41667 14.5315 8.34517 14.3975 8.2355 14.3C8.126 14.2025 7.99558 14.1537 7.84425 14.1537C7.66225 14.1537 7.51067 14.2221 7.3895 14.3587C7.26833 14.4952 7.2295 14.6705 7.273 14.8845C7.5435 16.3371 8.19742 17.3756 9.23475 18C10.2719 18.6243 11.2758 18.9064 12.2463 18.8462Z" fill="white"/>
</g>
</svg>
