<svg width="24" height="24" viewBox="0 0 24 24" fill="none" xmlns="http://www.w3.org/2000/svg">
<mask id="mask0_5_8415" style="mask-type:alpha" maskUnits="userSpaceOnUse" x="0" y="0" width="24" height="24">
<rect width="24" height="24" fill="#D9D9D9"/>
</mask>
<g mask="url(#mask0_5_8415)">
<path d="M4.30775 21.5H17.375C18.1313 21.5 18.6753 21.1686 19.0068 20.5058C19.3381 19.8429 19.2762 19.2103 18.821 18.6078L15.921 14.7673C15.8172 14.6366 15.7067 14.5235 15.5895 14.428C15.4722 14.3325 15.3347 14.2546 15.177 14.1943L10.6538 12.3173L8.29225 9.2135C8.12825 8.98917 7.919 8.81417 7.6645 8.6885C7.41 8.56283 7.14042 8.5 6.85575 8.5H4.30775C3.80908 8.5 3.38308 8.67659 3.02975 9.02975C2.67658 9.38309 2.5 9.80908 2.5 10.3078V19.6923C2.5 20.1909 2.67658 20.6169 3.02975 20.9703C3.38308 21.3234 3.80908 21.5 4.30775 21.5ZM4 19.6923V18.1403L6 18.7903L14.852 15.848L17.625 19.5095C17.7018 19.6122 17.7114 19.7196 17.6538 19.8318C17.5961 19.9439 17.5032 20 17.375 20H4.30775C4.21792 20 4.14417 19.9712 4.0865 19.9135C4.02883 19.8558 4 19.7821 4 19.6923ZM6 17.2098L4 16.5443V14.2365L6 14.8865L9.84425 13.6153L12.8307 14.9308L6 17.2098ZM18.9403 13.2788L21.3018 12.227C21.5531 12.1128 21.7515 11.9462 21.897 11.727C22.0425 11.5077 22.1152 11.2608 22.1152 10.9865V9.68075C22.1152 9.36292 22.0156 9.08342 21.8163 8.84225C21.6169 8.60125 21.3634 8.44233 21.0557 8.3655L18.873 7.87125C18.6653 7.82758 18.4653 7.83017 18.273 7.879C18.0807 7.92767 17.9025 8.01542 17.7385 8.14225L16.6328 9.02125C16.4686 9.14808 16.3413 9.3045 16.251 9.4905C16.1607 9.67633 16.1155 9.87634 16.1155 10.0905V11.2943C16.1155 11.5084 16.1607 11.7084 16.251 11.8943C16.3413 12.0801 16.4686 12.2365 16.6328 12.3635L17.55 13.098C17.7577 13.2622 17.9852 13.3593 18.2327 13.3895C18.4801 13.4195 18.7159 13.3826 18.9403 13.2788ZM6 13.3058L4 12.6405V10.3078C4 10.2179 4.02883 10.1442 4.0865 10.0865C4.14417 10.0288 4.21792 10 4.30775 10H6.84625C6.89742 10 6.94383 10.0096 6.9855 10.0288C7.02717 10.0481 7.06408 10.077 7.09625 10.1155L8.84625 12.3635L6 13.3058ZM18.4152 11.8673L17.6152 11.2423V10.1423L18.6152 9.34225L20.6152 9.79225V10.8923L18.4152 11.8673ZM12.7155 7.55575L15.646 6.3845C15.9038 6.28067 16.1106 6.11658 16.2663 5.89225C16.4221 5.66792 16.5 5.41342 16.5 5.12875V2.90775C16.5 2.57958 16.3987 2.29334 16.196 2.049C15.9935 1.80484 15.7332 1.6475 15.4152 1.577L12.648 1.029C12.4673 0.995667 12.2908 0.994002 12.1183 1.024C11.9459 1.05417 11.7828 1.12117 11.6287 1.225L10.1077 2.252C9.91675 2.3725 9.76767 2.534 9.6605 2.7365C9.5535 2.93917 9.5 3.15267 9.5 3.377V5.39225C9.5 5.61658 9.5535 5.83008 9.6605 6.03275C9.76767 6.23525 9.91675 6.39675 10.1077 6.51725L11.4655 7.425C11.6462 7.5455 11.8462 7.61825 12.0655 7.64325C12.2847 7.66825 12.5013 7.63908 12.7155 7.55575ZM12.225 6.13475L11 5.30975V3.45975L12.425 2.50975L15 3.03475V5.03475L12.225 6.13475Z" fill="white"/>
</g>
</svg>
