<svg width="24" height="24" viewBox="0 0 24 24" fill="none" xmlns="http://www.w3.org/2000/svg">
<mask id="mask0_5_8702" style="mask-type:alpha" maskUnits="userSpaceOnUse" x="0" y="0" width="24" height="24">
<rect width="24" height="24" fill="#D9D9D9"/>
</mask>
<g mask="url(#mask0_5_8702)">
<path d="M8.79426 20.6943C10.3173 20.6943 11.6147 20.1568 12.6865 19.0818C13.7583 18.0068 14.2943 16.711 14.2943 15.1943C14.2943 14.6776 14.2234 14.1693 14.0818 13.6693C13.9401 13.1693 13.7276 12.6943 13.4443 12.2443L12.7943 11.2193L13.7193 9.62131C13.7513 9.56998 13.7593 9.51223 13.7433 9.44806C13.7273 9.38406 13.6936 9.33598 13.6423 9.30381L11.4365 8.03456C11.3853 8.00256 11.3277 7.99623 11.2635 8.01556C11.1993 8.03473 11.1513 8.06998 11.1193 8.12131L10.1943 9.71931L9.05576 9.70956C7.48909 9.69673 6.13301 10.2031 4.98751 11.2288C3.84201 12.2545 3.26926 13.5596 3.26926 15.1443C3.26926 16.6776 3.80676 17.986 4.88176 19.0693C5.95676 20.1526 7.26093 20.6943 8.79426 20.6943ZM20.25 8.74231C20.0375 8.74231 19.8593 8.6704 19.7155 8.52656C19.5718 8.38273 19.5 8.20456 19.5 7.99206C19.5 7.7794 19.5718 7.60131 19.7155 7.45781C19.8593 7.31415 20.0375 7.24231 20.25 7.24231H21.25C21.4625 7.24231 21.6406 7.31423 21.7843 7.45806C21.9281 7.6019 22 7.78015 22 7.99281C22 8.20531 21.9281 8.3834 21.7843 8.52706C21.6406 8.67056 21.4625 8.74231 21.25 8.74231H20.25ZM15.3073 3.68481C15.0948 3.68481 14.9167 3.6129 14.773 3.46906C14.6295 3.3254 14.5578 3.14731 14.5578 2.93481V1.93481C14.5578 1.72231 14.6297 1.54415 14.7735 1.40031C14.9173 1.25665 15.0955 1.18481 15.308 1.18481C15.5207 1.18481 15.6988 1.25665 15.8423 1.40031C15.9859 1.54415 16.0578 1.72231 16.0578 1.93481V2.93481C16.0578 3.14731 15.9858 3.3254 15.842 3.46906C15.6982 3.6129 15.5199 3.68481 15.3073 3.68481ZM18.5885 4.78856C18.45 4.65006 18.3808 4.47765 18.3808 4.27131C18.3808 4.06481 18.45 3.8924 18.5885 3.75406L19.3135 3.01931C19.452 2.88081 19.6276 2.80998 19.8403 2.80681C20.0531 2.80365 20.2288 2.8729 20.3673 3.01456C20.5058 3.15623 20.5734 3.33348 20.5703 3.54631C20.5669 3.75915 20.4961 3.93473 20.3578 4.07306L19.6328 4.79806C19.4943 4.93656 19.3202 5.00423 19.1105 5.00106C18.901 4.9979 18.727 4.92706 18.5885 4.78856ZM16.7095 7.54056C16.6467 7.54056 16.5842 7.53423 16.522 7.52156C16.4598 7.50906 16.3977 7.48398 16.3355 7.44631L15.6828 7.06931C15.3853 6.89748 15.0653 6.85706 14.723 6.94806C14.3807 7.03923 14.1268 7.23348 13.9615 7.53081L13.8463 7.73081L14.702 8.21931C15.0263 8.40015 15.2363 8.67131 15.3318 9.03281C15.4273 9.39431 15.3846 9.73723 15.2038 10.0616L14.5578 11.2038C14.9411 11.8166 15.243 12.4606 15.4635 13.1356C15.684 13.8106 15.7943 14.5128 15.7943 15.2423C15.7943 17.1783 15.1139 18.8193 13.7533 20.1653C12.3926 21.5115 10.7403 22.1846 8.79651 22.1846C6.85268 22.1846 5.19809 21.4978 3.83276 20.1243C2.46743 18.7508 1.78476 17.094 1.78476 15.1538C1.78476 13.1988 2.47034 11.5486 3.84151 10.2031C5.21251 8.85756 6.87884 8.18481 8.84051 8.18481C8.92251 8.18481 9.00868 8.1864 9.09901 8.18956C9.18951 8.19273 9.27576 8.19756 9.35776 8.20406L9.99426 7.08656C10.1751 6.75206 10.4463 6.53706 10.8078 6.44156C11.1693 6.3459 11.5173 6.39365 11.852 6.58481L12.5538 6.98081L12.6788 6.78081C13.0429 6.12181 13.5948 5.69365 14.3345 5.49631C15.0743 5.29881 15.7738 5.3924 16.4328 5.77706L17.0698 6.13781C17.1823 6.20115 17.2757 6.2919 17.35 6.41006C17.4243 6.52823 17.4615 6.65573 17.4615 6.79256C17.4615 7.00406 17.3894 7.18156 17.2453 7.32506C17.1011 7.46873 16.9225 7.54056 16.7095 7.54056Z" fill="white"/>
</g>
</svg>
