<svg width="24" height="24" viewBox="0 0 24 24" fill="none" xmlns="http://www.w3.org/2000/svg">
<mask id="mask0_5_8408" style="mask-type:alpha" maskUnits="userSpaceOnUse" x="0" y="0" width="24" height="24">
<rect width="24" height="24" fill="#D9D9D9"/>
</mask>
<g mask="url(#mask0_5_8408)">
<path d="M12.2595 11.8942L11.8 21.4154C11.7873 21.6173 11.7085 21.7876 11.5635 21.9264C11.4187 22.0653 11.2202 22.1347 10.968 22.1347C10.7663 22.1347 10.5927 22.0643 10.447 21.9237C10.3013 21.783 10.2222 21.6103 10.2097 21.4057L9.827 12.9229L6.17125 10.7999L5.70575 12.5134L7.19225 15.1019C7.29358 15.2774 7.31475 15.4649 7.25575 15.6644C7.19675 15.8637 7.07941 16.014 6.90375 16.1152C6.72808 16.2165 6.54033 16.242 6.3405 16.1917C6.1405 16.1413 5.9905 16.0281 5.8905 15.8519L4.2655 13.0479C4.20516 12.9429 4.16666 12.8303 4.15 12.7102C4.13333 12.5902 4.14166 12.4701 4.175 12.3499L5.2115 8.61342L11.0097 5.29417L8.89225 3.09992C8.75391 2.96142 8.68216 2.79158 8.677 2.59042C8.67183 2.38908 8.74358 2.2135 8.89225 2.06367C9.02858 1.92633 9.20208 1.85767 9.41275 1.85767C9.62341 1.85767 9.798 1.92692 9.9365 2.06542L12.619 4.77467C12.8293 4.989 12.9169 5.23942 12.8817 5.52592C12.8464 5.81242 12.6999 6.03258 12.4422 6.18642L9.7845 7.73642L11.6577 9.14217L19.2537 2.77692C19.3922 2.64875 19.5572 2.594 19.7487 2.61267C19.9402 2.6315 20.1101 2.72875 20.2582 2.90442C20.3694 3.04242 20.4208 3.19767 20.4125 3.37017C20.4042 3.5425 20.3391 3.69792 20.2172 3.83642L12.2595 11.8942ZM5 6.84617C4.49233 6.84617 4.05775 6.66533 3.69625 6.30367C3.33458 5.94217 3.15375 5.50758 3.15375 4.99992C3.15375 4.49225 3.33458 4.05767 3.69625 3.69617C4.05775 3.3345 4.49233 3.15367 5 3.15367C5.50766 3.15367 5.94225 3.3345 6.30375 3.69617C6.66541 4.05767 6.84625 4.49225 6.84625 4.99992C6.84625 5.50758 6.66541 5.94217 6.30375 6.30367C5.94225 6.66533 5.50766 6.84617 5 6.84617Z" fill="white"/>
</g>
</svg>
