<svg width="24" height="24" viewBox="0 0 24 24" fill="none" xmlns="http://www.w3.org/2000/svg">
<mask id="mask0_5_8410" style="mask-type:alpha" maskUnits="userSpaceOnUse" x="0" y="0" width="24" height="24">
<rect width="24" height="24" fill="#D9D9D9"/>
</mask>
<g mask="url(#mask0_5_8410)">
<path d="M5.74625 19.2491C5.04108 18.5408 4.49042 17.7263 4.09425 16.8056C3.69808 15.8849 3.5 14.9331 3.5 13.9501C3.5 12.9643 3.68883 11.9861 4.0665 11.0156C4.444 10.0451 5.05392 9.13869 5.89625 8.29635C6.96675 7.22585 8.48183 6.47869 10.4415 6.05485C12.401 5.63119 14.6257 5.45785 17.1155 5.53485C17.459 5.55785 17.7724 5.63344 18.0557 5.7616C18.3391 5.88994 18.5872 6.06044 18.8 6.2731C19.0128 6.48594 19.1785 6.73344 19.297 7.0156C19.4157 7.2976 19.4833 7.60394 19.5 7.9346C19.5333 9.12177 19.5087 10.2737 19.426 11.3904C19.3433 12.507 19.1939 13.5449 18.9777 14.5039C18.7618 15.4629 18.4727 16.3337 18.1105 17.1164C17.7483 17.899 17.2961 18.5615 16.7538 19.1039C15.9281 19.936 15.0451 20.5434 14.1048 20.9261C13.1644 21.3088 12.212 21.5001 11.2475 21.5001C10.2363 21.5001 9.24292 21.302 8.26725 20.9059C7.29158 20.5097 6.45125 19.9574 5.74625 19.2491ZM7.9885 19.0846C8.491 19.4001 9.02208 19.6315 9.58175 19.7789C10.1414 19.9264 10.6975 20.0001 11.25 20.0001C12.021 20.0001 12.7836 19.8475 13.5378 19.5424C14.2921 19.2372 15.0077 18.7398 15.6845 18.0501C15.9833 17.7501 16.2863 17.3293 16.5935 16.7876C16.9005 16.2459 17.1661 15.5376 17.3903 14.6626C17.6144 13.7876 17.7846 12.7293 17.9008 11.4876C18.0169 10.2459 18.0398 8.76677 17.9693 7.0501C17.1526 7.01677 16.2285 7.00744 15.197 7.0221C14.1657 7.03694 13.1368 7.12094 12.1105 7.2741C11.0843 7.42727 10.1145 7.66735 9.201 7.99435C8.2875 8.32119 7.54867 8.76669 6.9845 9.33085C6.241 10.0745 5.72433 10.8274 5.4345 11.5896C5.14483 12.3518 5 13.0745 5 13.7579C5 14.7027 5.18433 15.5572 5.553 16.3214C5.9215 17.0854 6.30508 17.6526 6.70375 18.0231C7.26275 16.7668 8.04833 15.5614 9.0605 14.4069C10.0727 13.2524 11.3551 12.245 12.9078 11.3849C11.7332 12.4092 10.7274 13.5342 9.89025 14.7599C9.05308 15.9854 8.41917 17.4269 7.9885 19.0846Z" fill="white"/>
</g>
</svg>
