<svg width="24" height="24" viewBox="0 0 24 24" fill="none" xmlns="http://www.w3.org/2000/svg">
<mask id="mask0_5_8413" style="mask-type:alpha" maskUnits="userSpaceOnUse" x="0" y="0" width="24" height="24">
<rect width="24" height="24" fill="#D9D9D9"/>
</mask>
<g mask="url(#mask0_5_8413)">
<path d="M12 20.5094C10.9782 20.5094 10.0721 20.2344 9.28174 19.6844C8.49141 19.1344 7.85841 18.4191 7.38274 17.5384L5.79999 18.4422C5.62432 18.5435 5.43682 18.5621 5.23749 18.4979C5.03816 18.4339 4.88782 18.3141 4.78649 18.1384C4.68532 17.9628 4.65999 17.7753 4.71049 17.5759C4.76116 17.3766 4.87432 17.2263 5.04999 17.1249L6.78474 16.1249C6.72191 15.9224 6.67216 15.7125 6.63549 15.4952C6.59899 15.2779 6.56407 15.0615 6.53074 14.8462H4.43274C4.21991 14.8462 4.04166 14.7744 3.89799 14.6307C3.75449 14.4872 3.68274 14.309 3.68274 14.0962C3.68274 13.8834 3.75449 13.7051 3.89799 13.5614C4.04166 13.4179 4.21991 13.3462 4.43274 13.3462H6.52124C6.54174 13.0885 6.57349 12.8349 6.61649 12.5854C6.65932 12.3361 6.71541 12.0941 6.78474 11.8594L5.04049 10.8499C4.86482 10.7486 4.75166 10.5983 4.70099 10.3989C4.65032 10.1996 4.67566 10.0121 4.77699 9.83644C4.87832 9.66078 5.03116 9.54511 5.23549 9.48944C5.43999 9.43361 5.63007 9.45636 5.80574 9.55769L7.35774 10.4712C7.48457 10.2314 7.62907 9.99894 7.79124 9.77394C7.95357 9.54894 8.12316 9.34161 8.29999 9.15194C8.27316 9.04811 8.25807 8.94428 8.25474 8.84044C8.25157 8.73661 8.24999 8.63278 8.24999 8.52894C8.24999 8.11611 8.31474 7.72311 8.44424 7.34994C8.57374 6.97694 8.75132 6.63528 8.97699 6.32494L8.06549 5.41344C7.92699 5.27494 7.85516 5.10253 7.84999 4.89619C7.84482 4.68969 7.91666 4.50894 8.06549 4.35394C8.20382 4.19878 8.37524 4.12536 8.57974 4.13369C8.78424 4.14203 8.96407 4.21544 9.11924 4.35394L10.1115 5.29619C10.3948 5.12686 10.6939 4.99836 11.0087 4.91069C11.3234 4.82286 11.6538 4.77894 12 4.77894C12.3462 4.77894 12.6807 4.82703 13.0037 4.92319C13.3269 5.01919 13.6302 5.15186 13.9135 5.32119L14.8807 4.35394C15.0294 4.20511 15.2051 4.13169 15.4077 4.13369C15.6102 4.13553 15.7858 4.21403 15.9345 4.36919C16.073 4.51786 16.1432 4.69353 16.1452 4.89619C16.1471 5.09869 16.0737 5.27428 15.925 5.42294L15.0135 6.33469C15.2392 6.64486 15.4142 6.98486 15.5385 7.35469C15.6628 7.72469 15.725 8.11611 15.725 8.52894V8.82794C15.725 8.92344 15.7115 9.02311 15.6845 9.12695C15.8615 9.31661 16.0295 9.52653 16.1885 9.75669C16.3475 9.98686 16.4904 10.2218 16.6172 10.4614L18.1902 9.55769C18.3659 9.45636 18.5534 9.43361 18.7527 9.48944C18.9522 9.54511 19.1026 9.66078 19.2037 9.83644C19.3051 10.0121 19.3278 10.2022 19.272 10.4067C19.2163 10.6112 19.1007 10.7641 18.925 10.8654L17.1902 11.8499C17.2596 12.0718 17.3182 12.2994 17.3662 12.5327C17.4144 12.766 17.4519 13.0051 17.4787 13.2499H19.5672C19.7801 13.2499 19.9583 13.3218 20.102 13.4654C20.2455 13.6089 20.3172 13.7871 20.3172 13.9999C20.3172 14.2128 20.2455 14.3909 20.102 14.5344C19.9583 14.6781 19.7801 14.7499 19.5672 14.7499H17.4787C17.4519 14.9948 17.417 15.2323 17.374 15.4624C17.331 15.6926 17.2781 15.9186 17.2152 16.1404L18.9595 17.1499C19.1352 17.2513 19.2483 17.4042 19.299 17.6087C19.3497 17.813 19.3243 18.003 19.223 18.1787C19.1217 18.3544 18.9713 18.4675 18.772 18.5182C18.5727 18.5689 18.3852 18.5435 18.2095 18.4422L16.627 17.5287C16.1513 18.4095 15.5167 19.1265 14.723 19.6797C13.9295 20.2329 13.0218 20.5094 12 20.5094ZM9.81149 8.07119C10.1268 7.88403 10.4695 7.74044 10.8395 7.64044C11.2093 7.54044 11.5962 7.49044 12 7.49044C12.3975 7.49044 12.776 7.53786 13.1355 7.63269C13.4952 7.72753 13.8327 7.86536 14.148 8.04619C14.0532 7.54103 13.8054 7.12019 13.4047 6.78369C13.0041 6.44703 12.5358 6.27869 12 6.27869C11.4577 6.27869 10.9811 6.45119 10.5702 6.79619C10.1592 7.14103 9.90632 7.56603 9.81149 8.07119ZM12 19.0094C13.2167 19.0094 14.1891 18.4995 14.9172 17.4797C15.6454 16.4599 16.0095 15.2999 16.0095 13.9999C16.0095 12.8333 15.6704 11.7067 14.9922 10.6202C14.3141 9.53369 13.3167 8.99044 12 8.99044C10.6937 8.99044 9.69882 9.52953 9.01549 10.6077C8.33216 11.6859 7.99049 12.8166 7.99049 13.9999C7.99049 15.2999 8.35457 16.4599 9.08274 17.4797C9.81091 18.4995 10.7833 19.0094 12 19.0094ZM12 16.7499C11.7872 16.7499 11.609 16.6781 11.4655 16.5344C11.3218 16.3909 11.25 16.2128 11.25 15.9999V12.2404C11.25 12.0276 11.3218 11.8494 11.4655 11.7057C11.609 11.5622 11.7872 11.4904 12 11.4904C12.2128 11.4904 12.391 11.5622 12.5345 11.7057C12.6782 11.8494 12.75 12.0276 12.75 12.2404V15.9999C12.75 16.2128 12.6782 16.3909 12.5345 16.5344C12.391 16.6781 12.2128 16.7499 12 16.7499Z" fill="white"/>
</g>
</svg>
