<svg width="24" height="24" viewBox="0 0 24 24" fill="none" xmlns="http://www.w3.org/2000/svg">
<mask id="mask0_5_8405" style="mask-type:alpha" maskUnits="userSpaceOnUse" x="0" y="0" width="24" height="24">
<rect width="24" height="24" fill="#D9D9D9"/>
</mask>
<g mask="url(#mask0_5_8405)">
<path d="M8.59424 13.1558L10.0557 14.1385L11.5885 13.3598C11.709 13.2891 11.8446 13.2537 11.9952 13.2537C12.1459 13.2537 12.2815 13.2891 12.402 13.3598L13.9442 14.1385L15.375 13.1865L14.3655 11.173C14.3398 11.1218 14.3013 11.0802 14.25 11.048C14.1987 11.016 14.1442 11 14.0865 11H9.84224C9.78458 11 9.73174 11.016 9.68374 11.048C9.63558 11.0802 9.59866 11.1218 9.57299 11.173L8.59424 13.1558ZM5.22499 20H18.75L16.0442 14.5442L14.4827 15.5903C14.3456 15.6839 14.1991 15.7349 14.0432 15.7432C13.8874 15.7516 13.7326 15.7172 13.5787 15.6403L12 14.8463L10.4212 15.6307C10.2674 15.7077 10.1126 15.7395 9.95674 15.726C9.80091 15.7125 9.65441 15.6589 9.51724 15.5652L7.91549 14.5192L5.22499 20ZM4.25399 21.5C3.90899 21.5 3.64874 21.3577 3.47324 21.073C3.29758 20.7883 3.28666 20.4954 3.44049 20.1943L8.21549 10.5098C8.36933 10.2084 8.59266 9.96483 8.88549 9.779C9.17849 9.593 9.49741 9.5 9.84224 9.5H11.25V3.404C11.25 3.14617 11.3362 2.93108 11.5087 2.75875C11.6811 2.58625 11.8961 2.5 12.1537 2.5H16.873C17.0372 2.5 17.1644 2.57117 17.2547 2.7135C17.3451 2.85583 17.3518 3.00392 17.275 3.15775L16.8115 4.04425C16.7782 4.11475 16.7615 4.18333 16.7615 4.25C16.7615 4.31667 16.7782 4.38525 16.8115 4.45575L17.275 5.34225C17.3518 5.49608 17.3451 5.64417 17.2547 5.7865C17.1644 5.92883 17.0372 6 16.873 6H12.75V9.5H14.0672C14.4121 9.5 14.7268 9.59042 15.0115 9.77125C15.2962 9.95192 15.5205 10.1929 15.6845 10.4943L20.5345 20.1943C20.6883 20.4954 20.6774 20.7883 20.5017 21.073C20.3262 21.3577 20.066 21.5 19.721 21.5H4.25399Z" fill="white"/>
</g>
</svg>
