<svg width="24" height="24" viewBox="0 0 24 24" fill="none" xmlns="http://www.w3.org/2000/svg">
<mask id="mask0_5_8412" style="mask-type:alpha" maskUnits="userSpaceOnUse" x="0" y="0" width="24" height="24">
<rect width="24" height="24" fill="#D9D9D9"/>
</mask>
<g mask="url(#mask0_5_8412)">
<path d="M9.75 20.596C8.95133 20.596 8.26449 20.3194 7.6895 19.7663C7.1145 19.2131 6.79816 18.5423 6.7405 17.7538C5.82383 17.6141 5.061 17.1949 4.452 16.4963C3.843 15.7974 3.5385 14.9782 3.5385 14.0385C3.5385 13.7103 3.58116 13.3861 3.6665 13.0658C3.75166 12.7454 3.8795 12.4447 4.05 12.1635C3.8475 11.8698 3.69558 11.5523 3.59425 11.2108C3.49291 10.8691 3.44225 10.5104 3.44225 10.1348C3.44225 9.17543 3.758 8.34585 4.3895 7.64602C5.02083 6.94618 5.80258 6.53918 6.73475 6.42502C6.72825 6.39935 6.725 6.37368 6.725 6.34801V6.26152C6.75583 5.45635 7.06383 4.7756 7.649 4.21927C8.23433 3.66293 8.93466 3.38477 9.75 3.38477C10.209 3.38477 10.618 3.47451 10.977 3.65401C11.336 3.83335 11.677 4.08718 12 4.41552C12.3192 4.08718 12.6577 3.83335 13.0155 3.65401C13.3732 3.47451 13.7847 3.38477 14.25 3.38477C15.0563 3.38477 15.7502 3.66193 16.3317 4.21627C16.9131 4.77077 17.2192 5.44743 17.25 6.24626V6.33277C17.25 6.35843 17.2467 6.3841 17.2402 6.40977C18.1724 6.52377 18.9583 6.93176 19.598 7.63376C20.2378 8.3356 20.5577 9.16927 20.5577 10.1348C20.5577 10.5104 20.5055 10.8691 20.401 11.2108C20.2965 11.5523 20.1429 11.8698 19.9402 12.1635C20.1107 12.4443 20.2402 12.7449 20.3287 13.0653C20.4172 13.3858 20.4615 13.7102 20.4615 14.0385C20.4615 14.9948 20.1544 15.8198 19.5402 16.5135C18.9262 17.207 18.1577 17.6204 17.2345 17.7538C17.1768 18.5423 16.8647 19.2131 16.298 19.7663C15.7313 20.3194 15.0487 20.596 14.25 20.596C13.7885 20.596 13.3779 20.5089 13.0182 20.3345C12.6586 20.1602 12.3192 19.9057 12 19.571C11.6705 19.9057 11.3269 20.1602 10.9692 20.3345C10.6116 20.5089 10.2052 20.596 9.75 20.596ZM12.75 6.38477V17.5963C12.75 18.0163 12.8954 18.3713 13.1862 18.6613C13.4771 18.9513 13.833 19.0963 14.254 19.0963C14.6552 19.0963 14.999 18.9468 15.2855 18.648C15.5722 18.3493 15.727 18.0013 15.75 17.6038C15.3295 17.5154 14.9413 17.3555 14.5855 17.124C14.2298 16.8927 13.9225 16.5962 13.6635 16.2345C13.5353 16.059 13.487 15.8721 13.5185 15.6738C13.55 15.4754 13.6541 15.3143 13.8307 15.1905C14.0064 15.0622 14.1946 15.0138 14.3952 15.0455C14.5961 15.077 14.7592 15.1811 14.8845 15.3578C15.0913 15.6586 15.3546 15.8889 15.6742 16.0488C15.9939 16.2086 16.3397 16.2885 16.7115 16.2885C17.3385 16.2885 17.8702 16.0703 18.3067 15.6338C18.7432 15.1971 18.9615 14.6653 18.9615 14.0385C18.9615 13.9123 18.9493 13.7863 18.925 13.6603C18.9007 13.5343 18.8622 13.4103 18.8095 13.2885C18.5262 13.4808 18.2137 13.6283 17.872 13.7308C17.5303 13.8333 17.1756 13.8845 16.8077 13.8845C16.5952 13.8845 16.4171 13.8127 16.2732 13.669C16.1296 13.5252 16.0577 13.3469 16.0577 13.1343C16.0577 12.9218 16.1296 12.7437 16.2732 12.6C16.4171 12.4565 16.5952 12.3848 16.8077 12.3848C17.4346 12.3848 17.9663 12.1664 18.403 11.7298C18.8395 11.2933 19.0577 10.7616 19.0577 10.1348C19.0577 9.51777 18.8427 8.99427 18.4125 8.56427C17.9823 8.13427 17.4602 7.90768 16.8462 7.88452C16.6756 8.19102 16.4508 8.45835 16.172 8.68652C15.8932 8.91468 15.582 9.09543 15.2385 9.22877C15.0423 9.3031 14.8508 9.29693 14.664 9.21026C14.4772 9.1236 14.3527 8.9811 14.2905 8.78277C14.2263 8.5866 14.234 8.39393 14.3135 8.20477C14.393 8.01577 14.534 7.88918 14.7365 7.82502C15.0378 7.72252 15.2821 7.54043 15.4692 7.27877C15.6564 7.01727 15.75 6.7176 15.75 6.37977C15.75 5.96243 15.6049 5.60893 15.3147 5.31927C15.0247 5.02943 14.6697 4.88452 14.2495 4.88452C13.8293 4.88452 13.4743 5.02952 13.1845 5.31952C12.8948 5.60952 12.75 5.9646 12.75 6.38477ZM11.25 17.5963V6.38477C11.25 5.9646 11.1049 5.60952 10.8147 5.31952C10.5247 5.02952 10.1697 4.88452 9.7495 4.88452C9.32933 4.88452 8.97433 5.02952 8.6845 5.31952C8.39483 5.60952 8.25 5.9646 8.25 6.38477C8.25 6.7091 8.341 7.0046 8.523 7.27126C8.70516 7.53793 8.94683 7.72252 9.248 7.82502C9.44416 7.88918 9.58775 8.01418 9.67875 8.20002C9.76975 8.38585 9.78375 8.5776 9.72075 8.77527C9.64525 8.97277 9.513 9.11468 9.324 9.20101C9.13499 9.28752 8.93916 9.2936 8.7365 9.21927C8.393 9.08593 8.08183 8.90677 7.803 8.68177C7.52416 8.45677 7.29941 8.19102 7.12875 7.88452C6.53141 7.90768 6.01766 8.13752 5.5875 8.57402C5.15733 9.01052 4.94225 9.53177 4.94225 10.1378C4.94225 10.7626 5.1605 11.2933 5.597 11.7298C6.03366 12.1664 6.56541 12.3848 7.19225 12.3848C7.40475 12.3848 7.58291 12.4566 7.72675 12.6003C7.87041 12.7441 7.94225 12.9223 7.94225 13.135C7.94225 13.3475 7.87041 13.5256 7.72675 13.6693C7.58291 13.8128 7.40475 13.8845 7.19225 13.8845C6.82441 13.8845 6.46966 13.8333 6.128 13.7308C5.78633 13.6283 5.47383 13.4808 5.1905 13.2885C5.13783 13.4103 5.09933 13.5343 5.075 13.6603C5.05066 13.7863 5.0385 13.9123 5.0385 14.0385C5.0385 14.6653 5.25675 15.1971 5.69325 15.6338C6.12975 16.0703 6.6615 16.2885 7.2885 16.2885C7.66216 16.2885 8.00783 16.2081 8.3255 16.0473C8.64316 15.8863 8.9065 15.6564 9.1155 15.3578C9.24083 15.1811 9.40391 15.077 9.60475 15.0455C9.80541 15.0138 9.99358 15.0605 10.1692 15.1855C10.3449 15.3105 10.4487 15.4727 10.4807 15.672C10.5127 15.8715 10.4647 16.059 10.3365 16.2345C10.0712 16.5962 9.758 16.8953 9.397 17.1318C9.03616 17.3683 8.6455 17.5308 8.225 17.6193C8.248 18.0168 8.407 18.3623 8.702 18.6558C8.99683 18.9494 9.34483 19.0963 9.746 19.0963C10.167 19.0963 10.5229 18.9513 10.8137 18.6613C11.1046 18.3713 11.25 18.0163 11.25 17.5963Z" fill="white"/>
</g>
</svg>
