<svg width="24" height="24" viewBox="0 0 24 24" fill="none" xmlns="http://www.w3.org/2000/svg">
<mask id="mask0_5_8406" style="mask-type:alpha" maskUnits="userSpaceOnUse" x="0" y="0" width="24" height="24">
<rect width="24" height="24" fill="#D9D9D9"/>
</mask>
<g mask="url(#mask0_5_8406)">
<path d="M12 21.4999C9.90767 21.4999 8.13458 20.773 6.68075 19.3192C5.22692 17.8653 4.5 16.0922 4.5 13.9999C4.5 12.3089 4.98783 10.6657 5.9635 9.07016C6.93917 7.47466 8.277 6.07174 9.977 4.86141C10.2987 4.62424 10.6362 4.60058 10.9895 4.79041C11.3427 4.98008 11.5192 5.27108 11.5192 5.66341V6.51141C11.5192 7.12291 11.7679 7.65724 12.2652 8.11441C12.7627 8.57141 13.3493 8.79991 14.025 8.79991C14.3212 8.79991 14.608 8.74224 14.8855 8.62691C15.1632 8.51158 15.418 8.34683 15.65 8.13266C15.7833 7.99799 15.9413 7.91949 16.124 7.89716C16.3067 7.87466 16.4768 7.92366 16.6345 8.04416C17.5307 8.74933 18.2323 9.62591 18.7395 10.6739C19.2465 11.7221 19.5 12.8307 19.5 13.9999C19.5 16.0922 18.7731 17.8653 17.3193 19.3192C15.8654 20.773 14.0923 21.4999 12 21.4999ZM6 13.9999C6 15.0076 6.24075 15.9454 6.72225 16.8134C7.20358 17.6814 7.86542 18.3814 8.70775 18.9134C8.63342 18.7724 8.58017 18.6317 8.548 18.4912C8.516 18.3508 8.5 18.2037 8.5 18.0499C8.5 17.5871 8.58883 17.1512 8.7665 16.7422C8.944 16.3332 9.19875 15.9627 9.53075 15.6307L12 13.2019L14.4788 15.6307C14.8109 15.9627 15.0642 16.3332 15.2385 16.7422C15.4128 17.1512 15.5 17.5871 15.5 18.0499C15.5 18.2037 15.484 18.3508 15.452 18.4912C15.4198 18.6317 15.3666 18.7724 15.2923 18.9134C16.1346 18.3814 16.7964 17.6814 17.2778 16.8134C17.7592 15.9454 18 15.0076 18 13.9999C18 13.1666 17.8458 12.3791 17.5375 11.6374C17.2292 10.8957 16.7833 10.2332 16.2 9.64991C15.8667 9.86658 15.5167 10.0291 15.15 10.1374C14.7833 10.2457 14.4083 10.2999 14.025 10.2999C12.9853 10.2999 12.0863 9.95824 11.328 9.27491C10.5697 8.59158 10.1353 7.74349 10.025 6.73066C8.725 7.82433 7.72917 8.99674 7.0375 10.2479C6.34583 11.4992 6 12.7499 6 13.9999ZM12 15.2999L10.575 16.6999C10.3917 16.8832 10.25 17.0916 10.15 17.3249C10.05 17.5582 10 17.7999 10 18.0499C10 18.5832 10.1958 19.0416 10.5875 19.4249C10.9792 19.8082 11.45 19.9999 12 19.9999C12.55 19.9999 13.0208 19.8082 13.4125 19.4249C13.8042 19.0416 14 18.5832 14 18.0499C14 17.7832 13.95 17.5374 13.85 17.3124C13.75 17.0874 13.6083 16.8832 13.425 16.6999L12 15.2999Z" fill="white"/>
</g>
</svg>
