<svg width="24" height="24" viewBox="0 0 24 24" fill="none" xmlns="http://www.w3.org/2000/svg">
<mask id="mask0_5_8402" style="mask-type:alpha" maskUnits="userSpaceOnUse" x="0" y="0" width="24" height="24">
<rect width="24" height="24" fill="#D9D9D9"/>
</mask>
<g mask="url(#mask0_5_8402)">
<path d="M12.0049 12.3557C12.8767 12.3557 13.6401 12.6295 14.2951 13.177C14.9503 13.7243 15.3689 14.4108 15.5509 15.2365C15.5907 15.3903 15.5617 15.5224 15.4639 15.6327C15.3662 15.7429 15.2347 15.798 15.0691 15.798L8.9319 15.798C8.77807 15.798 8.65082 15.7434 8.55015 15.6342C8.44948 15.5251 8.41582 15.3925 8.44915 15.2365C8.63115 14.4108 9.05132 13.7243 9.70965 13.177C10.368 12.6295 11.1331 12.3557 12.0049 12.3557ZM11.9995 2.5C13.1793 2.5 14.2846 2.72467 15.3153 3.174C16.3461 3.62333 17.2448 4.23133 18.0115 4.998C18.7782 5.76467 19.3846 6.66658 19.8308 7.70375C20.2769 8.74108 20.5 9.84942 20.5 11.0287L20.5 19.6923C20.5 20.1894 20.323 20.615 19.969 20.969C19.615 21.323 19.1894 21.5 18.6923 21.5L5.30775 21.5C4.81058 21.5 4.385 21.323 4.031 20.969C3.677 20.615 3.5 20.1894 3.5 19.6922L3.5 11.0287C3.5 9.84941 3.72308 8.74108 4.16925 7.70375C4.61542 6.66658 5.22183 5.76466 5.9885 4.998C6.75517 4.23133 7.65367 3.62333 8.684 3.174C9.7145 2.72467 10.8197 2.5 11.9995 2.5ZM12.0048 4C10.0683 4 8.41667 4.68491 7.05 6.05475C5.68333 7.42458 5 9.08258 5 11.0287L5 19.6922C5 19.7821 5.02883 19.8558 5.0865 19.9135C5.14417 19.9712 5.21792 20 5.30775 20L18.6923 20C18.7821 20 18.8558 19.9712 18.9135 19.9135C18.9712 19.8558 19 19.7821 19 19.6922L19 11.0287C19 9.08258 18.3183 7.42458 16.9548 6.05475C15.5913 4.68492 13.9413 4 12.0048 4ZM14.9135 11.6827C15.3187 11.6827 15.6776 11.5622 15.9902 11.3212C16.3031 11.0801 16.5168 10.7758 16.6315 10.4085C16.6747 10.2708 16.651 10.1459 16.5605 10.0337C16.47 9.92141 16.3418 9.86525 16.176 9.86525L13.6435 9.86525C13.4927 9.86525 13.3705 9.92175 13.277 10.0347C13.1833 10.1477 13.1532 10.2721 13.1865 10.4077C13.307 10.7756 13.5237 11.0801 13.8365 11.3212C14.1493 11.5622 14.5083 11.6827 14.9135 11.6827ZM9.0945 11.6827C9.50067 11.6827 9.85817 11.562 10.167 11.3205C10.4758 11.0792 10.6905 10.7774 10.811 10.4152C10.8562 10.2794 10.8336 10.1554 10.7432 10.0432C10.6527 9.93108 10.5246 9.875 10.3587 9.875L7.82625 9.875C7.67542 9.875 7.55483 9.9315 7.4645 10.0445C7.374 10.1575 7.34542 10.2817 7.37875 10.4172C7.49925 10.7787 7.71375 11.0801 8.02225 11.3212C8.33075 11.5622 8.68817 11.6827 9.0945 11.6827Z" fill="white"/>
</g>
</svg>
