<svg width="24" height="24" viewBox="0 0 24 24" fill="none" xmlns="http://www.w3.org/2000/svg">
<mask id="mask0_5_8765" style="mask-type:alpha" maskUnits="userSpaceOnUse" x="0" y="0" width="24" height="24">
<rect width="24" height="24" fill="#D9D9D9"/>
</mask>
<g mask="url(#mask0_5_8765)">
<path d="M3.02699 17.2596C2.87183 17.1046 2.79841 16.9265 2.80674 16.7251C2.81508 16.5238 2.88849 16.354 3.02699 16.2156L8.07124 11.1059C8.41608 10.7545 8.84299 10.5789 9.35199 10.5789C9.86083 10.5789 10.2909 10.7545 10.6422 11.1059L13.1402 13.6194C13.1981 13.677 13.2687 13.7059 13.352 13.7059C13.4353 13.7059 13.509 13.677 13.573 13.6194L18.9655 8.28662H16.75C16.5372 8.28662 16.359 8.21487 16.2155 8.07137C16.0718 7.9277 16 7.74945 16 7.53662C16 7.32379 16.0718 7.14562 16.2155 7.00212C16.359 6.85845 16.5372 6.78662 16.75 6.78662H20.596C20.8538 6.78662 21.0689 6.87287 21.2412 7.04537C21.4137 7.21787 21.5 7.43295 21.5 7.69062V11.5366C21.5 11.7495 21.4282 11.9277 21.2845 12.0714C21.141 12.2149 20.9628 12.2866 20.75 12.2866C20.5372 12.2866 20.359 12.2165 20.2155 12.0761C20.0718 11.9358 20 11.7592 20 11.5464V9.34037L14.6327 14.7079C14.2877 15.0527 13.8608 15.2251 13.352 15.2251C12.843 15.2251 12.4161 15.0527 12.0712 14.7079L9.57299 12.2096C9.51533 12.152 9.44166 12.1231 9.35199 12.1231C9.26216 12.1231 9.18841 12.152 9.13074 12.2096L4.08074 17.2596C3.93591 17.4046 3.76024 17.4771 3.55374 17.4771C3.34741 17.4771 3.17183 17.4046 3.02699 17.2596Z" fill="white"/>
</g>
</svg>
